<svg width="35" height="36" viewBox="0 0 35 36" fill="none" xmlns="http://www.w3.org/2000/svg">
<path d="M17.4774 0.772949C7.82826 0.772949 0.00793457 8.59327 0.00793457 18.2424C0.00793457 27.8916 7.82826 35.7119 17.4774 35.7119C27.1266 35.7119 34.9469 27.8916 34.9469 18.2424C34.9469 8.59327 27.1266 0.772949 17.4774 0.772949ZM24.4789 19.7847L16.836 27.4276C15.983 28.2806 14.6011 28.2806 13.7481 27.4276C12.8951 26.5746 12.8951 25.1927 13.7481 24.3397L19.8522 18.2424L13.7515 12.1418C12.8985 11.2888 12.8985 9.90689 13.7515 9.05389C14.6045 8.20089 15.9864 8.20089 16.8394 9.05389L24.4823 16.6968C24.9088 17.1233 25.1203 17.6829 25.1203 18.2424C25.1203 18.802 24.9088 19.3616 24.4789 19.7847Z" fill="#7D6066"/>
</svg>
