<svg width="36" height="36" viewBox="0 0 36 36" fill="none" xmlns="http://www.w3.org/2000/svg">
<path d="M18.1227 0.772949C8.47352 0.772949 0.653198 8.59327 0.653198 18.2424C0.653198 27.8916 8.47352 35.7119 18.1227 35.7119C27.7718 35.7119 35.5922 27.8916 35.5922 18.2424C35.5922 8.59327 27.7718 0.772949 18.1227 0.772949ZM21.8486 24.3431C22.7016 25.1961 22.7016 26.578 21.8486 27.431C20.9956 28.284 19.6137 28.284 18.7607 27.431L11.1178 19.7881C10.6913 19.3616 10.4798 18.802 10.4798 18.2424C10.4798 17.6829 10.693 17.1247 11.1195 16.6988L18.7624 9.05594C19.6154 8.20294 20.9973 8.20294 21.8503 9.05594C22.7033 9.90894 22.7033 11.2908 21.8503 12.1438L15.7547 18.2424L21.8486 24.3431Z" fill="#7D6066"/>
</svg>
