<svg width="32" height="32" viewBox="0 0 32 32" fill="none" xmlns="http://www.w3.org/2000/svg">
<path d="M25.3333 26.6667H28M4 5.33333H6.66667H4ZM9.33333 10.6667H12H9.33333ZM10.6667 4V6.66667V4ZM5.33333 9.33333V12V9.33333ZM14.6667 5.33333H17.3333H14.6667ZM20 10.6667H22.6667H20ZM21.3333 4V6.66667V4ZM16 9.33333V12V9.33333ZM25.3333 5.33333H28H25.3333ZM26.6667 9.33333V12V9.33333ZM4 16H6.66667H4ZM9.33333 21.3333H12H9.33333ZM10.6667 14.6667V17.3333V14.6667ZM5.33333 20V22.6667V20ZM14.6667 16H17.3333H14.6667ZM20 21.3333H22.6667H20ZM21.3333 14.6667V17.3333V14.6667ZM16 20V22.6667V20ZM25.3333 16H28H25.3333ZM26.6667 20V22.6667V20ZM4 26.6667H6.66667H4ZM10.6667 25.3333V28V25.3333ZM14.6667 26.6667H17.3333H14.6667ZM21.3333 25.3333V28V25.3333Z" stroke="#7D6066" stroke-width="3" stroke-linecap="round" stroke-linejoin="round"/>
</svg>
