<svg width="28" height="28" viewBox="0 0 28 28" fill="none" xmlns="http://www.w3.org/2000/svg">
<path d="M19.6437 3.5C18.7737 3.49926 17.9122 3.67225 17.1098 4.00882C16.3075 4.34538 15.5804 4.83875 14.9712 5.46L14 6.44L13.0287 5.46C12.4188 4.83987 11.6916 4.34736 10.8894 4.01117C10.0871 3.67498 9.22604 3.50184 8.35624 3.50184C7.48643 3.50184 6.62533 3.67498 5.82312 4.01117C5.02092 4.34736 4.29366 4.83987 3.68374 5.46C2.44288 6.72317 1.74762 8.42307 1.74762 10.1938C1.74762 11.9644 2.44288 13.6643 3.68374 14.9275L14 25.375L24.3162 14.9275C25.5571 13.6643 26.2524 11.9644 26.2524 10.1938C26.2524 8.42307 25.5571 6.72317 24.3162 5.46C23.7065 4.83954 22.9793 4.34669 22.1771 4.01018C21.3749 3.67367 20.5137 3.50024 19.6437 3.5Z" fill="#890620"/>
</svg>
