<svg width="20" height="20" viewBox="0 0 20 20" fill="none" xmlns="http://www.w3.org/2000/svg">
<path d="M11.6667 20H8.33333C7.89131 20 7.46738 19.8244 7.15482 19.5118C6.84226 19.1993 6.66667 18.7754 6.66667 18.3333V12.0083L0.491667 5.83333C0.178677 5.52221 0.00186066 5.09965 0 4.65833V1.66667C0 1.22464 0.175595 0.800716 0.488155 0.488155C0.800716 0.175595 1.22464 0 1.66667 0H18.3333C18.7754 0 19.1993 0.175595 19.5118 0.488155C19.8244 0.800716 20 1.22464 20 1.66667V4.65833C19.9981 5.09965 19.8213 5.52221 19.5083 5.83333L13.3333 12.0083V18.3333C13.3333 18.7754 13.1577 19.1993 12.8452 19.5118C12.5326 19.8244 12.1087 20 11.6667 20ZM1.66667 1.66667V4.65833L8.33333 11.325V18.3333H11.6667V11.325L18.3333 4.65833V1.66667H1.66667Z" fill="white"/>
</svg>
