<svg width="36" height="36" viewBox="0 0 36 36" fill="none" xmlns="http://www.w3.org/2000/svg">
<path fill-rule="evenodd" clip-rule="evenodd" d="M18.6885 2.49064C18.4889 2.33501 18.243 2.25049 17.9899 2.25049C17.7368 2.25049 17.4909 2.33501 17.2913 2.49064L1.125 15.0963L2.52338 16.8648L4.5 15.3235V29.2499C4.50119 29.8463 4.73862 30.4179 5.16032 30.8396C5.58202 31.2613 6.15363 31.4987 6.75 31.4999L13.5 31.5V29.2499V20.2499C13.5006 19.6533 13.7378 19.0814 14.1597 18.6596C14.5815 18.2377 15.1534 18.0005 15.75 17.9999H20.25C20.8466 18.0005 21.4185 18.2377 21.8403 18.6596C22.2622 19.0814 22.4994 19.6533 22.5 20.2499V29.2499V31.4999L29.25 31.4999C29.8464 31.4987 30.418 31.2613 30.8397 30.8396C31.2614 30.4179 31.4988 29.8463 31.5 29.2499V15.3336L33.4766 16.8749L34.875 15.1064L18.6885 2.49064Z" fill="white"/>
</svg>
