<svg width="28" height="29" viewBox="0 0 28 29" fill="none" xmlns="http://www.w3.org/2000/svg">
<path d="M25.5938 5.94001C25.106 5.45057 24.5265 5.06223 23.8883 4.79725C23.2502 4.53227 22.566 4.39587 21.875 4.39587C21.184 4.39587 20.4999 4.53227 19.8617 4.79725C19.2236 5.06223 18.644 5.45057 18.1563 5.94001L19.3988 7.18251C19.7245 6.85675 20.1113 6.59835 20.5369 6.42205C20.9625 6.24575 21.4187 6.15501 21.8794 6.155C22.3401 6.155 22.7963 6.24575 23.2219 6.42205C23.6475 6.59835 24.0343 6.85675 24.36 7.18251C24.6858 7.50827 24.9442 7.89501 25.1205 8.32063C25.2968 8.74626 25.3875 9.20244 25.3875 9.66314C25.3875 10.1238 25.2968 10.58 25.1205 11.0056C24.9442 11.4313 24.6858 11.818 24.36 12.1438L17.36 19.1438C16.7033 19.8017 15.8121 20.1717 14.8825 20.1726C13.9529 20.1734 13.061 19.8049 12.4031 19.1481C11.7452 18.4914 11.3752 17.6002 11.3743 16.6706C11.3735 15.741 11.742 14.8492 12.3988 14.1913L13.6325 12.9488L12.3988 11.7063L11.1563 12.9488C10.6668 13.4365 10.2785 14.0161 10.0135 14.6542C9.74852 15.2924 9.61212 15.9765 9.61212 16.6675C9.61212 17.3585 9.74852 18.0427 10.0135 18.6808C10.2785 19.319 10.6668 19.8985 11.1563 20.3863C12.1463 21.3636 13.4838 21.9081 14.875 21.9C15.5686 21.9029 16.256 21.7682 16.8972 21.5039C17.5385 21.2396 18.1211 20.8508 18.6113 20.36L25.6113 13.36C26.5921 12.3733 27.1412 11.0376 27.1379 9.64639C27.1346 8.25514 26.5792 6.92207 25.5938 5.94001Z" fill="#890620"/>
<path d="M3.66625 21.7425C3.33952 21.4173 3.08026 21.0307 2.90335 20.605C2.72643 20.1793 2.63536 19.7229 2.63536 19.2619C2.63536 18.8009 2.72643 18.3444 2.90335 17.9187C3.08026 17.493 3.33952 17.1065 3.66625 16.7812L10.6663 9.78124C10.9915 9.45451 11.378 9.19524 11.8037 9.01833C12.2294 8.84142 12.6859 8.75035 13.1469 8.75035C13.6079 8.75035 14.0643 8.84142 14.49 9.01833C14.9157 9.19524 15.3023 9.45451 15.6275 9.78124C15.9522 10.109 16.2077 10.4986 16.3791 10.927C16.5504 11.3553 16.6341 11.8137 16.625 12.275C16.6277 12.7377 16.5386 13.1963 16.3628 13.6244C16.1871 14.0524 15.9283 14.4414 15.6013 14.7687L13.7463 16.65L14.9888 17.8925L16.8438 16.0375C17.8312 15.0501 18.3859 13.7108 18.3859 12.3144C18.3859 10.9179 17.8312 9.57868 16.8438 8.59124C15.8563 7.60381 14.5171 7.04907 13.1206 7.04907C11.7242 7.04907 10.3849 7.60381 9.3975 8.59124L2.3975 15.5912C1.90675 16.0791 1.51729 16.6593 1.25154 17.2982C0.985781 17.9372 0.848969 18.6223 0.848969 19.3144C0.848969 20.0064 0.985781 20.6916 1.25154 21.3305C1.51729 21.9695 1.90675 22.5496 2.3975 23.0375C3.39397 24.0074 4.73454 24.5424 6.125 24.525C7.52772 24.5263 8.87401 23.9727 9.87 22.985L8.6275 21.7425C8.30229 22.0692 7.91573 22.3285 7.49003 22.5054C7.06433 22.6823 6.60788 22.7734 6.14688 22.7734C5.68588 22.7734 5.22943 22.6823 4.80373 22.5054C4.37803 22.3285 3.99147 22.0692 3.66625 21.7425Z" fill="#890620"/>
</svg>
