<svg width="32" height="32" viewBox="0 0 32 32" fill="none" xmlns="http://www.w3.org/2000/svg">
<path d="M19.66 3C19.66 3 18.2362 3.5 16 3.5C13.7638 3.5 12.34 3 12.34 3C12.115 3.00001 11.8917 3.03804 11.6794 3.1125L2 6.5L3.03938 12L6.09438 12.345C6.4685 12.3873 6.81302 12.5688 7.05952 12.8534C7.30603 13.138 7.43649 13.5049 7.425 13.8813L7 29H25L24.575 13.8813C24.5635 13.5049 24.694 13.138 24.9405 12.8534C25.187 12.5688 25.5315 12.3873 25.9056 12.345L28.9606 12L30 6.5L20.3206 3.1125C20.1083 3.03804 19.885 3.00001 19.66 3V3Z" stroke="#7D6066" stroke-width="2.25" stroke-linecap="round" stroke-linejoin="round"/>
<path d="M20.8319 3.29102C20.5485 4.35612 19.9211 5.29773 19.0473 5.96945C18.1735 6.64116 17.1022 7.00533 16 7.00533C14.8979 7.00533 13.8266 6.64116 12.9528 5.96945C12.0789 5.29773 11.4516 4.35612 11.1682 3.29102" stroke="#7D6066" stroke-width="2.25" stroke-linecap="round" stroke-linejoin="round"/>
</svg>
