<svg width="24" height="24" viewBox="0 0 24 24" fill="none" xmlns="http://www.w3.org/2000/svg">
<path d="M7.5 10.5C6.90666 10.5 6.32664 10.3241 5.83329 9.99441C5.33994 9.66477 4.95543 9.19623 4.72836 8.64805C4.5013 8.09987 4.44189 7.49667 4.55765 6.91473C4.6734 6.33279 4.95912 5.79824 5.37868 5.37868C5.79824 4.95912 6.33279 4.6734 6.91473 4.55765C7.49667 4.44189 8.09987 4.5013 8.64805 4.72836C9.19623 4.95543 9.66477 5.33994 9.99441 5.83329C10.3241 6.32664 10.5 6.90666 10.5 7.5C10.499 8.29535 10.1826 9.05783 9.62023 9.62023C9.05783 10.1826 8.29535 10.499 7.5 10.5V10.5ZM7.5 6C7.20339 5.99971 6.91336 6.08735 6.66655 6.25186C6.41974 6.41637 6.22725 6.65036 6.1134 6.92425C5.99955 7.19813 5.96946 7.49963 6.02693 7.79061C6.08439 8.0816 6.22684 8.34902 6.43626 8.55907C6.64567 8.76912 6.91266 8.91236 7.20348 8.9707C7.49429 9.02904 7.79588 8.99985 8.0701 8.88682C8.34433 8.77379 8.5789 8.582 8.74414 8.33569C8.90939 8.08938 8.99791 7.79961 8.9985 7.503C8.9989 7.10504 8.84129 6.72319 8.56031 6.44137C8.27933 6.15955 7.89796 6.0008 7.5 6V6Z" fill="#890620" fill-opacity="0.74902"/>
<path d="M12.483 22.0613L1.9395 11.5155C1.65836 11.2344 1.50028 10.8533 1.5 10.4557V3C1.5 2.60218 1.65804 2.22064 1.93934 1.93934C2.22064 1.65804 2.60218 1.5 3 1.5H10.4557C10.8535 1.50008 11.235 1.65818 11.5162 1.9395L22.0613 12.483C22.3425 12.7643 22.5004 13.1458 22.5004 13.5435C22.5004 13.9412 22.3425 14.3227 22.0613 14.604L14.604 22.0613C14.4647 22.2006 14.2993 22.3111 14.1173 22.3866C13.9353 22.462 13.7402 22.5008 13.5431 22.5008C13.3461 22.5008 13.151 22.462 12.969 22.3866C12.7869 22.3111 12.6215 22.2006 12.4822 22.0613H12.483ZM3 3V10.4565L13.5435 21L21 13.5435L10.4565 3H3Z" fill="#890620" fill-opacity="0.74902"/>
</svg>
