<svg width="28" height="28" viewBox="0 0 28 28" fill="none" xmlns="http://www.w3.org/2000/svg">
<path d="M14 1.75C12.7886 1.75 11.6044 2.10923 10.5971 2.78225C9.58988 3.45527 8.80482 4.41187 8.34124 5.53106C7.87765 6.65026 7.75636 7.88179 7.99269 9.06993C8.22903 10.2581 8.81237 11.3494 9.66897 12.206C10.5256 13.0626 11.6169 13.646 12.8051 13.8823C13.9932 14.1186 15.2247 13.9973 16.3439 13.5338C17.4631 13.0702 18.4197 12.2851 19.0928 11.2779C19.7658 10.2706 20.125 9.08641 20.125 7.875C20.125 6.25055 19.4797 4.69263 18.331 3.54397C17.1824 2.39531 15.6245 1.75 14 1.75Z" fill="#890620"/>
<path d="M22.75 28H5.25V23.625C5.25 22.0005 5.89531 20.4426 7.04397 19.294C8.19263 18.1453 9.75055 17.5 11.375 17.5H16.625C18.2495 17.5 19.8074 18.1453 20.956 19.294C22.1047 20.4426 22.75 22.0005 22.75 23.625V28Z" fill="#890620"/>
</svg>
