<svg width="28" height="28" viewBox="0 0 28 28" fill="none" xmlns="http://www.w3.org/2000/svg">
<path d="M14 3.5C14.8653 3.5 15.7112 3.75659 16.4306 4.23732C17.1501 4.71805 17.7108 5.40133 18.042 6.20076C18.3731 7.00019 18.4597 7.87985 18.2909 8.72852C18.1221 9.57719 17.7054 10.3567 17.0936 10.9686C16.4817 11.5804 15.7022 11.9971 14.8535 12.1659C14.0049 12.3347 13.1252 12.2481 12.3258 11.917C11.5263 11.5858 10.8431 11.0251 10.3623 10.3056C9.88159 9.58615 9.625 8.74029 9.625 7.875C9.625 6.71468 10.0859 5.60188 10.9064 4.78141C11.7269 3.96094 12.8397 3.5 14 3.5M14 1.75C12.7886 1.75 11.6044 2.10923 10.5971 2.78225C9.58988 3.45527 8.80482 4.41187 8.34124 5.53106C7.87765 6.65026 7.75636 7.88179 7.99269 9.06993C8.22902 10.2581 8.81237 11.3494 9.66897 12.206C10.5256 13.0626 11.6169 13.646 12.8051 13.8823C13.9932 14.1186 15.2247 13.9973 16.3439 13.5338C17.4631 13.0702 18.4197 12.2851 19.0928 11.2779C19.7658 10.2706 20.125 9.08641 20.125 7.875C20.125 6.25055 19.4797 4.69263 18.331 3.54397C17.1824 2.39531 15.6245 1.75 14 1.75V1.75ZM22.75 28H21V23.625C21 23.0505 20.8868 22.4816 20.667 21.9508C20.4471 21.42 20.1248 20.9377 19.7186 20.5314C19.3123 20.1252 18.83 19.8029 18.2992 19.583C17.7684 19.3632 17.1995 19.25 16.625 19.25H11.375C10.2147 19.25 9.10188 19.7109 8.28141 20.5314C7.46094 21.3519 7 22.4647 7 23.625V28H5.25V23.625C5.25 22.0005 5.89531 20.4426 7.04397 19.294C8.19263 18.1453 9.75055 17.5 11.375 17.5H16.625C18.2495 17.5 19.8074 18.1453 20.956 19.294C22.1047 20.4426 22.75 22.0005 22.75 23.625V28Z" fill="#890620"/>
</svg>
